<svg width="1200" height="430" viewBox="0 0 1200 430" fill="none" xmlns="http://www.w3.org/2000/svg">
  <defs>
    <linearGradient id="bg" x1="0" y1="0" x2="1200" y2="430">
      <stop stop-color="#050B18"/>
      <stop offset=".5" stop-color="#092433"/>
      <stop offset="1" stop-color="#111B3D"/>
    </linearGradient>
    <linearGradient id="accent" x1="90" y1="210" x2="1110" y2="210">
      <stop stop-color="#34D399"/>
      <stop offset=".5" stop-color="#22D3EE"/>
      <stop offset="1" stop-color="#A78BFA"/>
    </linearGradient>
    <filter id="glow" x="-70%" y="-70%" width="240%" height="240%">
      <feGaussianBlur stdDeviation="7" result="blur"/>
      <feColorMatrix in="blur" type="matrix" values="0 0 0 0 0.13 0 0 0 0 0.83 0 0 0 0 0.93 0 0 0 .8 0"/>
      <feBlend in2="SourceGraphic" mode="screen"/>
    </filter>
    <pattern id="grid" width="34" height="34" patternUnits="userSpaceOnUse">
      <path d="M34 0H0V34" stroke="#E8FFFF" stroke-opacity=".055"/>
    </pattern>
  </defs>
  <rect width="1200" height="430" rx="28" fill="url(#bg)"/>
  <rect width="1200" height="430" rx="28" fill="url(#grid)"/>
  <text x="70" y="58" fill="#9FFCF0" font-family="Consolas, 'Courier New', monospace" font-size="18" font-weight="700">ALGORITHM + BUILDER MODE</text>
  <text x="70" y="102" fill="#F8FFFF" font-family="Georgia, 'Times New Roman', serif" font-size="44" font-weight="700">from problem solving to shipped systems</text>
  <text x="70" y="132" fill="#BFE7E8" font-family="Consolas, 'Courier New', monospace" font-size="16">LeetCode discipline · ML systems · full-stack product loops</text>
  <path d="M84 244C205 145 301 271 418 198C520 134 588 158 681 246C775 335 899 185 1110 214" stroke="url(#accent)" stroke-width="4" stroke-linecap="round" filter="url(#glow)"/>

  <g font-family="Consolas, 'Courier New', monospace">
    <g transform="translate(70 178)">
      <rect width="250" height="150" rx="22" fill="#061A1A" fill-opacity=".74" stroke="#34D399" stroke-opacity=".55"/>
      <text x="26" y="42" fill="#F8FFFF" font-size="22" font-weight="700">400+</text>
      <text x="92" y="42" fill="#F8FFFF" font-size="17" font-weight="700">problems</text>
      <text x="26" y="76" fill="#BFE7E8" font-size="14">LeetCode Global: chuqianc</text>
      <text x="26" y="100" fill="#BFE7E8" font-size="14">China: ccq33927</text>
      <text x="26" y="124" fill="#9FFCF0" font-size="14">DP · graphs · systems thinking</text>
    </g>
    <g transform="translate(360 178)">
      <rect width="250" height="150" rx="22" fill="#061A1A" fill-opacity=".74" stroke="#22D3EE" stroke-opacity=".55"/>
      <text x="26" y="42" fill="#F8FFFF" font-size="22" font-weight="700">1800+</text>
      <text x="110" y="42" fill="#F8FFFF" font-size="17" font-weight="700">rating</text>
      <text x="26" y="76" fill="#BFE7E8" font-size="14">regular contest participant</text>
      <text x="26" y="100" fill="#BFE7E8" font-size="14">algorithmic speed + rigor</text>
      <text x="26" y="124" fill="#9FFCF0" font-size="14">turns ambiguity into structure</text>
    </g>
    <g transform="translate(650 178)">
      <rect width="250" height="150" rx="22" fill="#061A1A" fill-opacity=".74" stroke="#A78BFA" stroke-opacity=".55"/>
      <text x="26" y="42" fill="#F8FFFF" font-size="22" font-weight="700">SDE</text>
      <text x="84" y="42" fill="#F8FFFF" font-size="17" font-weight="700">builder</text>
      <text x="26" y="76" fill="#BFE7E8" font-size="14">APIs · dashboards · services</text>
      <text x="26" y="100" fill="#BFE7E8" font-size="14">Django · React · Vue · Node</text>
      <text x="26" y="124" fill="#9FFCF0" font-size="14">research that users can touch</text>
    </g>
    <g transform="translate(940 178)">
      <rect width="190" height="150" rx="22" fill="#061A1A" fill-opacity=".74" stroke="#FBBF24" stroke-opacity=".55"/>
      <text x="26" y="42" fill="#F8FFFF" font-size="22" font-weight="700">MLOps</text>
      <text x="26" y="76" fill="#BFE7E8" font-size="14">MLflow · Kubeflow</text>
      <text x="26" y="100" fill="#BFE7E8" font-size="14">Docker · K8s</text>
      <text x="26" y="124" fill="#9FFCF0" font-size="14">train → deploy → monitor</text>
    </g>
  </g>
</svg>
